<svg width="451" height="475" viewBox="0 0 451 475" fill="none" xmlns="http://www.w3.org/2000/svg">
<path d="M122.261 57H327.001C370.195 57 405.263 92.0733 405.263 135.273V340.046C405.263 383.246 370.195 418.319 327.001 418.319H122.261C79.0678 418.319 44 383.246 44 340.046V135.273C44 92.0733 79.0678 57 122.261 57Z" fill="#FFD02F"/>
<path d="M295.034 102.125H255.369L288.405 160.188L215.704 102.125H176.039L212.39 173.127L136.374 102.125H96.7086L136.374 192.481L96.7086 373.194H136.374L212.39 179.543L176.039 373.194H215.704L288.405 166.711L255.369 373.194H295.034L367.736 147.25L295.034 102.125Z" fill="#050038"/>
</svg>
